<svg width="468" height="198" viewBox="0 0 468 198" fill="none" xmlns="http://www.w3.org/2000/svg">
<path d="M51.74 49.79C59.8 45.76 65.13 39 65.13 29.25C65.13 13 53.95 1.95 35.62 1.95H0V92.95H13.52V57.07H36.27C44.07 57.07 49.4 62.79 50.05 70.85L51.87 92.95H65L63.18 69.68C62.66 60.84 58.37 53.69 51.74 49.79ZM13.52 13.65H35.23C47.06 13.65 51.61 20.93 51.61 29.25C51.61 37.44 47.06 45.11 35.23 45.11H13.52V13.65Z" fill="#FF1339"/>
<path d="M118.007 71.63C116.187 79.04 109.947 83.2 100.327 83.2C88.887 83.2 80.827 74.75 79.787 62.4H129.837C129.967 61.23 130.097 59.15 130.097 57.46C130.097 40.82 119.307 26.39 99.027 26.39C78.877 26.39 67.437 41.47 67.437 59.8C67.437 78 80.047 93.99 100.327 93.99C116.447 93.99 128.277 85.15 130.617 71.63H118.007ZM99.027 36.53C109.817 36.53 116.577 43.16 117.357 53.17H80.177C82.127 42.25 88.757 36.53 99.027 36.53Z" fill="#FF1339"/>
<path d="M164.625 93.99C173.335 93.99 181.395 89.7 185.295 83.2V92.95H197.905V0H185.295V37.05C181.395 30.68 173.465 26.39 164.495 26.39C144.475 26.39 133.165 40.69 133.165 60.19C133.165 79.69 144.475 93.99 164.625 93.99ZM166.055 82.94C153.965 82.94 146.035 73.84 146.035 60.19C146.035 46.54 153.965 37.44 166.055 37.44C178.275 37.44 186.205 46.54 186.205 60.19C186.205 73.84 178.275 82.94 166.055 82.94Z" fill="#FF1339"/>
<path d="M209.674 92.95H267.524V80.99H223.194V1.95H209.674V92.95Z" fill="#FF1339"/>
<path d="M269.532 0V15.86H283.572V0H269.532ZM270.312 92.95H282.922V27.43H270.312V92.95Z" fill="#FF1339"/>
<path d="M339.887 27.43V36.14C335.857 30.42 327.797 26.39 319.087 26.39C299.067 26.39 287.757 40.69 287.757 60.19C287.757 79.69 299.067 93.99 319.217 93.99C328.447 93.99 336.767 90.22 339.887 84.63V95.29C339.887 103.22 334.427 108.94 326.887 108.94H296.597V119.47H328.187C342.487 119.47 352.497 109.85 352.497 96.07V27.43H339.887ZM320.647 82.94C308.557 82.94 300.627 73.97 300.627 60.19C300.627 46.41 308.557 37.44 320.647 37.44C332.867 37.44 340.797 46.41 340.797 60.19C340.797 73.97 332.867 82.94 320.647 82.94Z" fill="#FF1339"/>
<path d="M362.73 92.95H375.34V57.46C375.34 46.02 382.62 37.7 392.89 37.7C402.12 37.7 408.23 44.72 408.23 55.12V92.95H420.84V52.65C420.84 37.05 411.22 26.39 396.4 26.39C386.65 26.39 378.85 30.81 375.34 39V0H362.73V92.95Z" fill="#FF1339"/>
<path d="M435.237 6.89V27.43H421.847V38.35H435.237V71.5C435.237 84.89 443.687 92.95 456.947 92.95H467.217V82.03H457.987C451.617 82.03 447.847 78.13 447.847 71.11V38.35H467.217V27.43H447.847V6.89H435.237Z" fill="#FF1339"/>
<path d="M21.1736 184.99C10.9686 184.99 4.46858 178.88 3.88358 169.585H9.34358C9.92858 175.89 14.0886 179.985 21.1736 179.985C27.4786 179.985 32.0286 177.58 32.0286 172.055C32.0286 160.355 5.44358 166.79 5.44358 150.54C5.44358 143.325 11.7486 138.45 20.8486 138.45C29.9486 138.45 36.2536 143.715 36.9036 151.905H31.4436C30.9236 146.77 26.9586 143.455 20.8486 143.455C14.6736 143.455 11.0336 146.185 11.0336 150.54C11.0336 162.175 37.8136 154.96 37.8136 172.055C37.8136 180.31 30.6636 184.99 21.1736 184.99ZM100.186 184.47V165.425L84.0658 138.97H90.3708L102.981 160.095L115.526 138.97H121.831L105.711 165.425V184.47H100.186ZM185.187 184.99C174.982 184.99 168.482 178.88 167.897 169.585H173.357C173.942 175.89 178.102 179.985 185.187 179.985C191.492 179.985 196.042 177.58 196.042 172.055C196.042 160.355 169.457 166.79 169.457 150.54C169.457 143.325 175.762 138.45 184.862 138.45C193.962 138.45 200.267 143.715 200.917 151.905H195.457C194.937 146.77 190.972 143.455 184.862 143.455C178.687 143.455 175.047 146.185 175.047 150.54C175.047 162.175 201.827 154.96 201.827 172.055C201.827 180.31 194.677 184.99 185.187 184.99ZM263.35 184.47V143.975H248.79V138.97H283.435V143.975H268.94V184.47H263.35ZM333.811 184.47V138.97H362.281V143.975H339.336V158.47H357.991V163.475H339.336V179.465H362.996V184.47H333.811ZM415.628 184.47V138.97H422.843L437.858 176.995L452.808 138.97H460.023V184.47H454.628V148.2L440.263 184.47H435.388L421.023 148.2V184.47H415.628Z" fill="#1F1F1F"/>
</svg>
